<svg width="258" height="244" fill="none" xmlns="http://www.w3.org/2000/svg"><path d="M122.306 165.242l1.093-5.351h1.226L122.984 167h-1.181l-1.353-5.19-1.382 5.19h-1.186l-1.641-7.109h1.226l1.103 5.341 1.358-5.341h1.035l1.343 5.351zm8.378-1.416h-2.92v2.188h3.413V167h-4.649v-7.109h4.615v.996h-3.379v1.963h2.92v.976zm2.499 3.174v-7.109h2.099c.628 0 1.185.14 1.67.42.488.279.866.677 1.133 1.191s.4 1.103.4 1.768v.356c0 .674-.135 1.266-.405 1.777a2.812 2.812 0 0 1-1.147 1.182c-.495.277-1.063.415-1.704.415h-2.046zm1.235-6.113v5.127h.806c.647 0 1.144-.202 1.489-.606.348-.407.526-.989.532-1.748v-.395c0-.772-.168-1.361-.503-1.768-.335-.407-.822-.61-1.46-.61h-.864zM165.006 160.887h-2.217V167h-1.226v-6.113h-2.197v-.996h5.64v.996zm7.582 6.113h-1.231v-3.159h-3.178V167h-1.236v-7.109h1.236v2.959h3.178v-2.959h1.231V167zm7.665-7.109v4.751c0 .755-.243 1.354-.728 1.796-.481.44-1.124.66-1.928.66-.814 0-1.46-.217-1.939-.65-.478-.436-.718-1.04-.718-1.811v-4.746h1.231v4.755c0 .476.12.839.361 1.089.241.251.596.376 1.065.376.95 0 1.425-.501 1.425-1.504v-4.716h1.231zM207.039 163.987h-2.861V167h-1.236v-7.109h4.517v.996h-3.281v2.114h2.861v.986zm5.014.274h-1.377V167h-1.236v-7.109h2.5c.821 0 1.454.184 1.9.551.446.368.669.9.669 1.597 0 .475-.116.874-.347 1.196a2.187 2.187 0 0 1-.957.738l1.597 2.964V167h-1.323l-1.426-2.739zm-1.377-.991h1.269c.417 0 .743-.105.977-.313.234-.212.351-.5.351-.864 0-.381-.109-.676-.327-.884-.215-.208-.537-.316-.967-.322h-1.303v2.383zm7.308 3.73h-1.23v-7.109h1.23V167z" fill="#B6B3C0"/><path opacity=".1" fill="url(#paint0_linear)" d="M11 0h1v144h-1z"/><path opacity=".1" fill="url(#paint1_linear)" d="M50 0h1v144h-1z"/><path opacity=".1" fill="url(#paint2_linear)" d="M90 0h1v144h-1z"/><path opacity=".1" fill="url(#paint3_linear)" d="M129 0h1v144h-1z"/><path opacity=".1" fill="url(#paint4_linear)" d="M168 0h1v144h-1z"/><path opacity=".1" fill="url(#paint5_linear)" d="M208 0h1v144h-1z"/><path opacity=".1" fill="url(#paint6_linear)" d="M247 0h1v144h-1z"/><path d="M36.442 159.891l2.051 5.449 2.046-5.449h1.597V167h-1.23v-2.344l.121-3.135-2.1 5.479h-.883l-2.095-5.474.122 3.13V167h-1.23v-7.109h1.601zm13.832 3.74c0 .696-.12 1.308-.36 1.836-.242.524-.587.928-1.036 1.211-.446.28-.96.42-1.543.42-.576 0-1.09-.14-1.543-.42a2.809 2.809 0 0 1-1.045-1.206c-.244-.521-.368-1.122-.371-1.802v-.4c0-.694.122-1.306.366-1.836.248-.531.594-.936 1.04-1.216.45-.283.964-.425 1.543-.425.58 0 1.092.14 1.538.42.45.277.796.677 1.04 1.201.245.521.368 1.128.371 1.821v.396zm-1.235-.371c0-.788-.15-1.392-.45-1.812-.295-.42-.717-.63-1.264-.63-.534 0-.952.21-1.255.63-.3.417-.452 1.008-.459 1.773v.41c0 .781.152 1.385.454 1.811.306.427.73.64 1.27.64.547 0 .967-.208 1.26-.625.296-.417.444-1.025.444-1.826v-.371zm9.105 3.74H56.91l-3.169-5.044V167h-1.235v-7.109h1.235l3.179 5.063v-5.063h1.226V167zM4.61 165.169c0-.313-.111-.553-.333-.723-.218-.169-.613-.34-1.186-.512-.573-.173-1.029-.365-1.367-.577-.648-.406-.972-.937-.972-1.591 0-.573.233-1.045.698-1.416.469-.371 1.076-.557 1.821-.557.495 0 .936.091 1.324.273.387.183.691.443.913.782.221.335.332.708.332 1.118H4.61c0-.371-.118-.661-.352-.869-.231-.212-.563-.318-.996-.318-.404 0-.718.087-.943.259-.221.173-.332.413-.332.723 0 .26.12.478.362.654.24.173.638.342 1.191.508.553.163.998.35 1.333.561.335.209.581.45.737.723.157.27.235.588.235.952 0 .593-.228 1.065-.684 1.416-.452.349-1.068.523-1.846.523-.514 0-.988-.095-1.42-.284-.43-.192-.765-.455-1.006-.791a1.971 1.971 0 0 1-.357-1.171h1.236c0 .403.133.716.4.937.267.221.65.332 1.147.332.43 0 .752-.086.967-.259a.846.846 0 0 0 .327-.693zm8.519-5.278v4.751c0 .755-.243 1.354-.728 1.796-.481.44-1.124.66-1.928.66-.814 0-1.46-.217-1.939-.65-.478-.436-.718-1.04-.718-1.811v-4.746h1.23v4.755c0 .476.121.839.362 1.089.241.251.596.376 1.065.376.95 0 1.425-.501 1.425-1.504v-4.716h1.23zM21.092 167h-1.236l-3.169-5.044V167h-1.235v-7.109h1.236l3.178 5.063v-5.063h1.226V167zM240.847 165.169c0-.313-.111-.553-.332-.723-.218-.169-.614-.34-1.187-.512-.573-.173-1.029-.365-1.367-.577-.648-.406-.972-.937-.972-1.591 0-.573.233-1.045.699-1.416.468-.371 1.075-.557 1.821-.557.495 0 .936.091 1.323.273.387.183.692.443.913.782.221.335.332.708.332 1.118h-1.23c0-.371-.118-.661-.352-.869-.231-.212-.563-.318-.996-.318-.404 0-.718.087-.942.259-.222.173-.332.413-.332.723 0 .26.12.478.361.654.241.173.638.342 1.191.508.554.163.998.35 1.333.561.336.209.581.45.738.723.156.27.234.588.234.952 0 .593-.228 1.065-.684 1.416-.452.349-1.067.523-1.845.523-.515 0-.988-.095-1.421-.284-.43-.192-.765-.455-1.006-.791a1.968 1.968 0 0 1-.356-1.171h1.235c0 .403.133.716.4.937.267.221.65.332 1.148.332.429 0 .752-.086.967-.259a.846.846 0 0 0 .327-.693zm7.299.176h-2.754l-.577 1.655h-1.284l2.686-7.109h1.108l2.691 7.109h-1.289l-.581-1.655zm-2.408-.996h2.061l-1.03-2.95-1.031 2.95zm10.639-3.462h-2.217V167h-1.225v-6.113h-2.198v-.996h5.64v.996zM82.233 160.887h-2.216V167H78.79v-6.113h-2.197v-.996h5.64v.996zm7.138-.996v4.751c0 .755-.242 1.354-.727 1.796-.482.44-1.125.66-1.93.66-.813 0-1.46-.217-1.938-.65-.478-.436-.717-1.04-.717-1.811v-4.746h1.23v4.755c0 .476.12.839.361 1.089.241.251.596.376 1.065.376.95 0 1.426-.501 1.426-1.504v-4.716h1.23zm6.479 3.935h-2.92v2.188h3.413V167h-4.649v-7.109h4.615v.996h-3.38v1.963h2.92v.976z" fill="#B6B3C0"/><path d="M11 129l38.676 12.239a1 1 0 0 0 1.201-.517l39.647-81.74a1 1 0 0 1 1.412-.422l36.975 22.088a1 1 0 0 0 1.129-.07l38.105-29.8a1 1 0 0 1 .798-.196l39.42 7.3a1 1 0 0 0 1.005-.415L247 3" stroke="#613AAF" stroke-width="2" stroke-linecap="round" filter="url(#filter0_d)"/><rect y="204" width="40" height="24" rx="4" fill="#1D1135" fill-opacity=".04"/><path d="M14.574 219h-4.78v-.815l2.368-2.583c.342-.381.584-.699.728-.953.146-.257.22-.514.22-.771 0-.339-.097-.612-.289-.82-.188-.209-.444-.313-.766-.313-.384 0-.682.117-.894.352-.211.234-.317.555-.317.962H9.657c0-.433.098-.822.293-1.167.199-.349.48-.619.845-.811a2.704 2.704 0 0 1 1.27-.288c.69 0 1.233.174 1.63.522.4.345.6.824.6 1.436 0 .355-.1.728-.302 1.118-.198.388-.526.829-.981 1.323l-1.739 1.861h3.301V219zm5.917-2.534h.884v.952h-.884V219h-1.186v-1.582h-3.072l-.034-.723 3.067-4.804h1.225v4.575zm-3.047 0h1.86v-2.969l-.087.156-1.773 2.813zM28.996 219h-1.23v-3.159h-3.18V219h-1.234v-7.109h1.235v2.959h3.179v-2.959h1.23V219z" fill="#1D1135"/><g filter="url(#filter1_d)"><rect x="54" y="204" width="40" height="24" rx="4" fill="#613AAF"/><rect x="54.5" y="204.5" width="39" height="23" rx="3.5" stroke="#613AAF"/></g><path d="M69.004 219h-1.182v-5.708l-1.743.596v-1.001l2.774-1.021h.15V219zm9.237-1.758l1.094-5.351h1.226L78.92 219h-1.182l-1.352-5.19-1.382 5.19h-1.187l-1.64-7.109h1.225l1.104 5.341 1.357-5.341h1.035l1.343 5.351z" fill="#fff"/><rect x="108" y="204" width="40" height="24" rx="4" fill="#1D1135" fill-opacity=".04"/><path d="M123.023 219h-1.181v-5.708l-1.743.596v-1.001l2.773-1.021h.151V219zm5.263-7.109l2.051 5.449 2.046-5.449h1.596V219h-1.23v-2.344l.122-3.135-2.1 5.479h-.883l-2.095-5.474.122 3.13V219h-1.23v-7.109h1.601z" fill="#1D1135"/><rect x="163" y="204" width="40" height="24" rx="4" fill="#1D1135" fill-opacity=".04"/><path d="M179.502 211.856v.982h-.147c-.664.01-1.194.192-1.591.547-.397.355-.633.858-.708 1.509.381-.401.867-.601 1.46-.601.628 0 1.123.221 1.484.664.365.443.547 1.014.547 1.714 0 .723-.213 1.308-.64 1.758-.423.446-.98.669-1.67.669-.709 0-1.286-.262-1.728-.786-.44-.525-.659-1.211-.659-2.061v-.405c0-1.247.302-2.224.908-2.93.609-.706 1.483-1.06 2.622-1.06h.122zm-1.274 3.394a1.288 1.288 0 0 0-1.192.806v.361c0 .527.111.947.332 1.26.222.309.508.464.86.464a1 1 0 0 0 .834-.396c.206-.264.308-.61.308-1.04 0-.43-.104-.78-.312-1.05a.997.997 0 0 0-.83-.405zm6.058-3.359l2.051 5.449 2.046-5.449h1.596V219h-1.23v-2.344l.122-3.135-2.1 5.479h-.883l-2.095-5.474.122 3.13V219h-1.23v-7.109h1.601z" fill="#1D1135"/><rect x="218" y="204" width="40" height="24" rx="4" fill="#1D1135" fill-opacity=".04"/><path d="M232.962 217.345h-2.754l-.576 1.655h-1.284l2.685-7.109h1.109l2.69 7.109h-1.289l-.581-1.655zm-2.407-.996h2.06l-1.03-2.95-1.03 2.95zm7.323 1.665h3.227V219h-4.462v-7.109h1.235v6.123zm6.41 0h3.228V219h-4.463v-7.109h1.235v6.123z" fill="#1D1135"/><g filter="url(#filter2_d)"><circle cx="247" cy="3" r="3" fill="#fff"/><circle cx="247" cy="3" r="2" stroke="#613AAF" stroke-width="2"/></g><defs><filter id="filter0_d" x="4" y="2" width="250" height="152.286" filterUnits="userSpaceOnUse" color-interpolation-filters="sRGB"><feFlood flood-opacity="0" result="BackgroundImageFix"/><feColorMatrix in="SourceAlpha" values="0 0 0 0 0 0 0 0 0 0 0 0 0 0 0 0 0 0 127 0"/><feOffset dy="6"/><feGaussianBlur stdDeviation="3"/><feColorMatrix values="0 0 0 0 0.113725 0 0 0 0 0.0666667 0 0 0 0 0.207843 0 0 0 0.1 0"/><feBlend in2="BackgroundImageFix" result="effect1_dropShadow"/><feBlend in="SourceGraphic" in2="effect1_dropShadow" result="shape"/></filter><filter id="filter1_d" x="42" y="196" width="64" height="48" filterUnits="userSpaceOnUse" color-interpolation-filters="sRGB"><feFlood flood-opacity="0" result="BackgroundImageFix"/><feColorMatrix in="SourceAlpha" values="0 0 0 0 0 0 0 0 0 0 0 0 0 0 0 0 0 0 127 0"/><feOffset dy="4"/><feGaussianBlur stdDeviation="6"/><feColorMatrix values="0 0 0 0 0.0800145 0 0 0 0 0.0456077 0 0 0 0 0.148828 0 0 0 0.1 0"/><feBlend in2="BackgroundImageFix" result="effect1_dropShadow"/><feBlend in="SourceGraphic" in2="effect1_dropShadow" result="shape"/></filter><filter id="filter2_d" x="238" y="0" width="18" height="18" filterUnits="userSpaceOnUse" color-interpolation-filters="sRGB"><feFlood flood-opacity="0" result="BackgroundImageFix"/><feColorMatrix in="SourceAlpha" values="0 0 0 0 0 0 0 0 0 0 0 0 0 0 0 0 0 0 127 0"/><feOffset dy="6"/><feGaussianBlur stdDeviation="3"/><feColorMatrix values="0 0 0 0 0.113725 0 0 0 0 0.0666667 0 0 0 0 0.207843 0 0 0 0.1 0"/><feBlend in2="BackgroundImageFix" result="effect1_dropShadow"/><feBlend in="SourceGraphic" in2="effect1_dropShadow" result="shape"/></filter><linearGradient id="paint0_linear" x1="11.5" x2="11.5" y2="144" gradientUnits="userSpaceOnUse"><stop stop-color="#1D1135" stop-opacity="0"/><stop offset="1" stop-color="#1D1135"/></linearGradient><linearGradient id="paint1_linear" x1="50.5" x2="50.5" y2="144" gradientUnits="userSpaceOnUse"><stop stop-color="#1D1135" stop-opacity="0"/><stop offset="1" stop-color="#1D1135"/></linearGradient><linearGradient id="paint2_linear" x1="90.5" x2="90.5" y2="144" gradientUnits="userSpaceOnUse"><stop stop-color="#1D1135" stop-opacity="0"/><stop offset="1" stop-color="#1D1135"/></linearGradient><linearGradient id="paint3_linear" x1="129.5" x2="129.5" y2="144" gradientUnits="userSpaceOnUse"><stop stop-color="#1D1135" stop-opacity="0"/><stop offset="1" stop-color="#1D1135"/></linearGradient><linearGradient id="paint4_linear" x1="168.5" x2="168.5" y2="144" gradientUnits="userSpaceOnUse"><stop stop-color="#1D1135" stop-opacity="0"/><stop offset="1" stop-color="#1D1135"/></linearGradient><linearGradient id="paint5_linear" x1="208.5" x2="208.5" y2="144" gradientUnits="userSpaceOnUse"><stop stop-color="#1D1135" stop-opacity="0"/><stop offset="1" stop-color="#1D1135"/></linearGradient><linearGradient id="paint6_linear" x1="247.5" x2="247.5" y2="144" gradientUnits="userSpaceOnUse"><stop stop-color="#1D1135" stop-opacity="0"/><stop offset="1" stop-color="#1D1135"/></linearGradient></defs></svg>